<svg width="17" height="17" viewBox="0 0 17 17" fill="none" xmlns="http://www.w3.org/2000/svg">
<g clip-path="url(#clip0_2_126)">
<path d="M15.24 16.64L10.3 11.7C9.79999 12.1 9.21999 12.42 8.56999 12.65C7.91999 12.88 7.22999 13 6.48999 13C4.66999 13 3.13999 12.37 1.87999 11.11C0.61999 9.85 -0.0100098 8.31 -0.0100098 6.5C-0.0100098 4.69 0.62999 3.15 1.88999 1.89C3.14999 0.63 4.67999 0 6.49999 0C8.31999 0 9.84999 0.63 11.11 1.89C12.37 3.15 13 4.69 13 6.5C13 7.23 12.88 7.93 12.65 8.58C12.42 9.23 12.1 9.81 11.7 10.31L16.64 15.25L15.24 16.65V16.64ZM6.49999 11C7.74999 11 8.80999 10.56 9.68999 9.69C10.57 8.82 11 7.75 11 6.5C11 5.25 10.56 4.19 9.68999 3.31C8.81999 2.43 7.74999 2 6.49999 2C5.24999 2 4.18999 2.44 3.30999 3.31C2.42999 4.18 1.99999 5.25 1.99999 6.5C1.99999 7.75 2.43999 8.81 3.30999 9.69C4.17999 10.57 5.24999 11 6.49999 11Z" fill="#B5BDCD"/>
</g>
<defs>
<clipPath id="clip0_2_126">
<rect width="16.64" height="16.64" fill="white"/>
</clipPath>
</defs>
</svg>
