<svg width="85" height="26" viewBox="0 0 85 26" fill="none" xmlns="http://www.w3.org/2000/svg">
<rect width="85" height="26" rx="13" fill="#E8ECF1"/>
<path d="M22.6403 18.6182H19.1087V7.70907H22.7522C23.8211 7.70907 24.7391 7.92747 25.5061 8.36426C26.2731 8.7975 26.8609 9.42072 27.2692 10.2339C27.6812 11.0436 27.8871 12.0148 27.8871 13.1476C27.8871 14.284 27.6794 15.2606 27.2639 16.0773C26.852 16.8941 26.2554 17.5226 25.4741 17.963C24.6929 18.3998 23.7483 18.6182 22.6403 18.6182ZM20.7547 17.18H22.5498C23.3807 17.18 24.0714 17.0237 24.6219 16.7112C25.1723 16.3952 25.5842 15.9388 25.8577 15.3422C26.1311 14.7421 26.2678 14.0106 26.2678 13.1476C26.2678 12.2918 26.1311 11.5656 25.8577 10.969C25.5878 10.3724 25.1847 9.91966 24.6485 9.61071C24.1123 9.30176 23.4464 9.14728 22.651 9.14728H20.7547V17.18ZM33.3324 18.7833C32.5263 18.7833 31.832 18.6111 31.2496 18.2666C30.6708 17.9186 30.2233 17.4303 29.9073 16.8018C29.5948 16.1697 29.4385 15.4292 29.4385 14.5805C29.4385 13.7425 29.5948 13.0038 29.9073 12.3646C30.2233 11.7254 30.6637 11.2265 31.2283 10.8678C31.7965 10.5091 32.4606 10.3298 33.2205 10.3298C33.6821 10.3298 34.1296 10.4062 34.5628 10.5589C34.9961 10.7116 35.3849 10.9513 35.7294 11.278C36.0738 11.6047 36.3455 12.029 36.5444 12.551C36.7432 13.0695 36.8427 13.6998 36.8427 14.442V15.0067H30.3388V13.8135H35.2819C35.2819 13.3944 35.1967 13.0233 35.0263 12.7002C34.8558 12.3735 34.6161 12.116 34.3071 11.9278C34.0018 11.7396 33.6431 11.6455 33.2312 11.6455C32.7837 11.6455 32.3931 11.7556 32.0593 11.9758C31.729 12.1924 31.4733 12.4765 31.2922 12.828C31.1147 13.176 31.0259 13.5542 31.0259 13.9626V14.8948C31.0259 15.4417 31.1218 15.9069 31.3135 16.2904C31.5089 16.6739 31.7805 16.9669 32.1285 17.1693C32.4765 17.3682 32.8831 17.4676 33.3483 17.4676C33.6502 17.4676 33.9254 17.425 34.174 17.3398C34.4226 17.251 34.6374 17.1196 34.8185 16.9456C34.9996 16.7716 35.1381 16.5567 35.234 16.301L36.7415 16.5727C36.6207 17.0166 36.4041 17.4055 36.0916 17.7393C35.7826 18.0695 35.3938 18.327 34.925 18.5116C34.4598 18.6927 33.929 18.7833 33.3324 18.7833ZM42.429 10.4363V11.7148H37.9599V10.4363H42.429ZM39.1584 8.47612H40.7511V16.2158C40.7511 16.5248 40.7973 16.7574 40.8896 16.9136C40.982 17.0663 41.1009 17.1711 41.2465 17.2279C41.3957 17.2812 41.5572 17.3078 41.7312 17.3078C41.8591 17.3078 41.9709 17.2989 42.0668 17.2812C42.1627 17.2634 42.2373 17.2492 42.2905 17.2385L42.5782 18.5542C42.4859 18.5898 42.3545 18.6253 42.184 18.6608C42.0136 18.6998 41.8005 18.7211 41.5448 18.7247C41.1258 18.7318 40.7352 18.6572 40.3729 18.501C40.0107 18.3447 39.7177 18.1032 39.494 17.7765C39.2703 17.4498 39.1584 17.0397 39.1584 16.5461V8.47612ZM46.5719 18.7993C46.0534 18.7993 45.5847 18.7034 45.1656 18.5116C44.7466 18.3163 44.4146 18.034 44.1695 17.6647C43.9281 17.2954 43.8073 16.8426 43.8073 16.3064C43.8073 15.8447 43.8961 15.4648 44.0737 15.1665C44.2512 14.8682 44.4909 14.632 44.7928 14.458C45.0946 14.284 45.432 14.1526 45.8048 14.0638C46.1777 13.9751 46.5577 13.9076 46.9448 13.8614C47.4348 13.8046 47.8325 13.7584 48.1379 13.7229C48.4433 13.6839 48.6653 13.6217 48.8038 13.5365C48.9423 13.4513 49.0115 13.3128 49.0115 13.121V13.0837C49.0115 12.6185 48.8801 12.2581 48.6173 12.0024C48.3581 11.7467 47.971 11.6189 47.4561 11.6189C46.9199 11.6189 46.4973 11.7378 46.1884 11.9758C45.883 12.2101 45.6717 12.4711 45.5545 12.7588L44.0577 12.4179C44.2352 11.9207 44.4945 11.5194 44.8354 11.214C45.1798 10.9051 45.5758 10.6814 46.0232 10.5429C46.4707 10.4008 46.9412 10.3298 47.4348 10.3298C47.7615 10.3298 48.1078 10.3689 48.4735 10.447C48.8428 10.5216 49.1873 10.6601 49.5069 10.8625C49.8301 11.0649 50.0946 11.3543 50.3006 11.7307C50.5065 12.1036 50.6095 12.5883 50.6095 13.1849V18.6182H49.0541V17.4996H48.9902C48.8872 17.7055 48.7328 17.9079 48.5268 18.1068C48.3208 18.3057 48.0563 18.4708 47.7331 18.6022C47.41 18.7336 47.0229 18.7993 46.5719 18.7993ZM46.9181 17.5209C47.3585 17.5209 47.7349 17.4339 48.0474 17.2599C48.3634 17.0858 48.6031 16.8586 48.7665 16.578C48.9334 16.2939 49.0168 15.9903 49.0168 15.6672V14.6125C48.96 14.6693 48.8499 14.7226 48.6866 14.7723C48.5268 14.8184 48.3439 14.8593 48.1379 14.8948C47.932 14.9268 47.7313 14.9569 47.536 14.9854C47.3407 15.0102 47.1774 15.0315 47.046 15.0493C46.737 15.0883 46.4547 15.154 46.199 15.2464C45.9469 15.3387 45.7445 15.4719 45.5918 15.6459C45.4426 15.8163 45.3681 16.0436 45.3681 16.3277C45.3681 16.7219 45.5136 17.0202 45.8048 17.2226C46.096 17.4214 46.4671 17.5209 46.9181 17.5209ZM52.7309 18.6182V10.4363H54.3236V18.6182H52.7309ZM53.5352 9.17392C53.2582 9.17392 53.0203 9.08159 52.8214 8.89693C52.6261 8.70872 52.5285 8.485 52.5285 8.22576C52.5285 7.96298 52.6261 7.73926 52.8214 7.5546C53.0203 7.36639 53.2582 7.27228 53.5352 7.27228C53.8122 7.27228 54.0484 7.36639 54.2437 7.5546C54.4425 7.73926 54.542 7.96298 54.542 8.22576C54.542 8.485 54.4425 8.70872 54.2437 8.89693C54.0484 9.08159 53.8122 9.17392 53.5352 9.17392ZM58.0589 7.70907V18.6182H56.4662V7.70907H58.0589ZM66.3326 12.4339L64.8891 12.6895C64.8287 12.5049 64.7328 12.3291 64.6014 12.1622C64.4736 11.9953 64.2996 11.8586 64.0794 11.752C63.8593 11.6455 63.584 11.5922 63.2538 11.5922C62.8028 11.5922 62.4264 11.6934 62.1245 11.8959C61.8227 12.0947 61.6718 12.3522 61.6718 12.6682C61.6718 12.9417 61.773 13.1618 61.9754 13.3287C62.1778 13.4956 62.5045 13.6324 62.9555 13.7389L64.2552 14.0372C65.0081 14.2112 65.5691 14.4793 65.9385 14.8415C66.3078 15.2037 66.4924 15.6743 66.4924 16.2531C66.4924 16.7432 66.3504 17.18 66.0663 17.5635C65.7858 17.9434 65.3934 18.2417 64.8891 18.4584C64.3884 18.675 63.8078 18.7833 63.1473 18.7833C62.2311 18.7833 61.4836 18.588 60.9047 18.1974C60.3259 17.8032 59.9708 17.2439 59.8394 16.5194L61.3788 16.2851C61.4747 16.6863 61.6718 16.99 61.9701 17.1959C62.2684 17.3983 62.6572 17.4996 63.1366 17.4996C63.6586 17.4996 64.0759 17.3912 64.3884 17.1746C64.7009 16.9545 64.8571 16.6863 64.8571 16.3703C64.8571 16.1146 64.7613 15.8998 64.5695 15.7258C64.3813 15.5518 64.0919 15.4204 63.7012 15.3316L62.3163 15.028C61.5528 14.854 60.9882 14.577 60.6224 14.197C60.2602 13.817 60.0791 13.3358 60.0791 12.7535C60.0791 12.2705 60.214 11.8479 60.4839 11.4857C60.7538 11.1235 61.1267 10.8412 61.6025 10.6388C62.0784 10.4328 62.6235 10.3298 63.2378 10.3298C64.122 10.3298 64.8181 10.5216 65.3259 10.9051C65.8337 11.2851 66.1693 11.7947 66.3326 12.4339Z" fill="#626D82"/>
<rect width="85" height="26" rx="13" fill="#E8ECF1"/>
<path d="M14.4359 18.6182V7.70907H18.3244C19.1731 7.70907 19.8762 7.86355 20.4337 8.1725C20.9913 8.48144 21.4085 8.90403 21.6855 9.44025C21.9625 9.97292 22.101 10.5731 22.101 11.2407C22.101 11.9118 21.9607 12.5155 21.6802 13.0518C21.4032 13.5844 20.9842 14.007 20.4231 14.3195C19.8656 14.6285 19.1642 14.7829 18.319 14.7829H15.645V13.3873H18.1699C18.7061 13.3873 19.1411 13.295 19.4749 13.1104C19.8087 12.9221 20.0538 12.6665 20.21 12.3433C20.3663 12.0202 20.4444 11.6526 20.4444 11.2407C20.4444 10.8287 20.3663 10.463 20.21 10.1434C20.0538 9.82377 19.807 9.57342 19.4696 9.39231C19.1358 9.2112 18.6955 9.12065 18.1486 9.12065H16.0818V18.6182H14.4359ZM27.3265 18.7833C26.5204 18.7833 25.8261 18.6111 25.2438 18.2666C24.6649 17.9186 24.2175 17.4303 23.9014 16.8018C23.5889 16.1697 23.4327 15.4292 23.4327 14.5805C23.4327 13.7425 23.5889 13.0038 23.9014 12.3646C24.2175 11.7254 24.6578 11.2265 25.2225 10.8678C25.7906 10.5091 26.4547 10.3298 27.2146 10.3298C27.6763 10.3298 28.1237 10.4062 28.557 10.5589C28.9902 10.7116 29.3791 10.9513 29.7235 11.278C30.068 11.6047 30.3396 12.029 30.5385 12.551C30.7374 13.0695 30.8368 13.6998 30.8368 14.442V15.0067H24.3329V13.8135H29.2761C29.2761 13.3944 29.1908 13.0233 29.0204 12.7002C28.8499 12.3735 28.6102 12.116 28.3013 11.9278C27.9959 11.7396 27.6372 11.6455 27.2253 11.6455C26.7779 11.6455 26.3872 11.7556 26.0534 11.9758C25.7232 12.1924 25.4675 12.4765 25.2864 12.828C25.1088 13.176 25.02 13.5542 25.02 13.9626V14.8948C25.02 15.4417 25.1159 15.9069 25.3077 16.2904C25.503 16.6739 25.7747 16.9669 26.1227 17.1693C26.4707 17.3682 26.8773 17.4676 27.3425 17.4676C27.6443 17.4676 27.9195 17.425 28.1681 17.3398C28.4167 17.251 28.6315 17.1196 28.8127 16.9456C28.9938 16.7716 29.1323 16.5567 29.2281 16.301L30.7356 16.5727C30.6149 17.0166 30.3982 17.4055 30.0857 17.7393C29.7768 18.0695 29.3879 18.327 28.9192 18.5116C28.454 18.6927 27.9231 18.7833 27.3265 18.7833ZM34.1966 13.7602V18.6182H32.6039V10.4363H34.1327V11.768H34.2339C34.4221 11.3348 34.7169 10.9868 35.1181 10.724C35.523 10.4612 36.0326 10.3298 36.6469 10.3298C37.2044 10.3298 37.6927 10.447 38.1117 10.6814C38.5308 10.9122 38.8557 11.2567 39.0865 11.7148C39.3174 12.1729 39.4328 12.7393 39.4328 13.414V18.6182H37.8401V13.6057C37.8401 13.0127 37.6856 12.5493 37.3767 12.2155C37.0677 11.8781 36.6434 11.7094 36.1036 11.7094C35.7343 11.7094 35.4058 11.7893 35.1181 11.9491C34.834 12.1089 34.6086 12.3433 34.4416 12.6523C34.2783 12.9577 34.1966 13.327 34.1966 13.7602ZM44.6316 18.778C43.9711 18.778 43.3816 18.6093 42.8632 18.2719C42.3483 17.931 41.9434 17.4463 41.6487 16.8177C41.3575 16.1856 41.2119 15.4275 41.2119 14.5432C41.2119 13.659 41.3593 12.9026 41.654 12.2741C41.9523 11.6455 42.3607 11.1643 42.8791 10.8305C43.3976 10.4967 43.9853 10.3298 44.6423 10.3298C45.1501 10.3298 45.5585 10.415 45.8674 10.5855C46.1799 10.7524 46.4214 10.9477 46.5919 11.1714C46.7659 11.3952 46.9008 11.5922 46.9967 11.7627H47.0926V7.70907H48.6853V18.6182H47.1299V17.3451H46.9967C46.9008 17.5191 46.7623 17.718 46.5812 17.9417C46.4037 18.1654 46.1586 18.3607 45.8461 18.5276C45.5336 18.6945 45.1288 18.778 44.6316 18.778ZM44.9832 17.4197C45.4413 17.4197 45.8284 17.2989 46.1444 17.0574C46.464 16.8124 46.7055 16.4733 46.8689 16.04C47.0358 15.6068 47.1192 15.1025 47.1192 14.5273C47.1192 13.9591 47.0375 13.4619 46.8742 13.0358C46.7108 12.6096 46.4711 12.2776 46.1551 12.0397C45.839 11.8018 45.4484 11.6828 44.9832 11.6828C44.5038 11.6828 44.1043 11.8071 43.7847 12.0557C43.4651 12.3042 43.2236 12.6434 43.0603 13.0731C42.9005 13.5028 42.8206 13.9875 42.8206 14.5273C42.8206 15.0741 42.9022 15.566 43.0656 16.0028C43.2289 16.4395 43.4704 16.7858 43.79 17.0415C44.1132 17.2936 44.5109 17.4197 44.9832 17.4197ZM50.9584 18.6182V10.4363H52.5511V18.6182H50.9584ZM51.7628 9.17392C51.4858 9.17392 51.2478 9.08159 51.049 8.89693C50.8537 8.70872 50.756 8.485 50.756 8.22576C50.756 7.96298 50.8537 7.73926 51.049 7.5546C51.2478 7.36639 51.4858 7.27228 51.7628 7.27228C52.0397 7.27228 52.2759 7.36639 52.4712 7.5546C52.6701 7.73926 52.7695 7.96298 52.7695 8.22576C52.7695 8.485 52.6701 8.70872 52.4712 8.89693C52.2759 9.08159 52.0397 9.17392 51.7628 9.17392ZM56.2865 13.7602V18.6182H54.6938V10.4363H56.2225V11.768H56.3238C56.512 11.3348 56.8067 10.9868 57.208 10.724C57.6128 10.4612 58.1224 10.3298 58.7367 10.3298C59.2943 10.3298 59.7826 10.447 60.2016 10.6814C60.6206 10.9122 60.9456 11.2567 61.1764 11.7148C61.4072 12.1729 61.5226 12.7393 61.5226 13.414V18.6182H59.9299V13.6057C59.9299 13.0127 59.7755 12.5493 59.4665 12.2155C59.1576 11.8781 58.7332 11.7094 58.1934 11.7094C57.8241 11.7094 57.4956 11.7893 57.208 11.9491C56.9239 12.1089 56.6984 12.3433 56.5315 12.6523C56.3681 12.9577 56.2865 13.327 56.2865 13.7602ZM67.089 21.8568C66.4392 21.8568 65.8799 21.7716 65.4111 21.6011C64.9459 21.4307 64.5659 21.2052 64.2712 20.9246C63.9764 20.6441 63.7563 20.3369 63.6107 20.0031L64.9796 19.4385C65.0755 19.5947 65.2034 19.7599 65.3632 19.9339C65.5265 20.1114 65.7467 20.2623 66.0237 20.3866C66.3042 20.5109 66.6647 20.5731 67.105 20.5731C67.7087 20.5731 68.2076 20.4257 68.6018 20.1309C68.996 19.8398 69.1931 19.3746 69.1931 18.7354V17.1267H69.0919C68.996 17.3007 68.8575 17.4942 68.6764 17.7073C68.4988 17.9204 68.2538 18.105 67.9413 18.2613C67.6288 18.4175 67.2222 18.4956 66.7215 18.4956C66.0752 18.4956 65.4928 18.3447 64.9743 18.0429C64.4594 17.7375 64.051 17.2883 63.7492 16.6952C63.4509 16.0986 63.3017 15.3653 63.3017 14.4953C63.3017 13.6253 63.4491 12.8795 63.7439 12.2581C64.0421 11.6366 64.4505 11.1608 64.969 10.8305C65.4875 10.4967 66.0752 10.3298 66.7321 10.3298C67.2399 10.3298 67.6501 10.415 67.9626 10.5855C68.2751 10.7524 68.5184 10.9477 68.6924 11.1714C68.8699 11.3952 69.0066 11.5922 69.1025 11.7627H69.2197V10.4363H70.7804V18.7993C70.7804 19.5024 70.6171 20.0795 70.2904 20.5305C69.9637 20.9814 69.5215 21.3153 68.964 21.5319C68.41 21.7485 67.785 21.8568 67.089 21.8568ZM67.073 17.1746C67.5311 17.1746 67.9182 17.0681 68.2343 16.855C68.5539 16.6384 68.7953 16.3295 68.9587 15.9282C69.1256 15.5233 69.209 15.0386 69.209 14.474C69.209 13.9236 69.1274 13.4388 68.964 13.0198C68.8007 12.6008 68.561 12.2741 68.2449 12.0397C67.9289 11.8018 67.5382 11.6828 67.073 11.6828C66.5936 11.6828 66.1941 11.8071 65.8745 12.0557C65.5549 12.3007 65.3135 12.6345 65.1501 13.0571C64.9903 13.4797 64.9104 13.952 64.9104 14.474C64.9104 15.0102 64.9921 15.4807 65.1554 15.8856C65.3188 16.2904 65.5603 16.6064 65.8799 16.8337C66.203 17.061 66.6007 17.1746 67.073 17.1746Z" fill="#626D82"/>
</svg>
