<svg width="33" height="33" viewBox="0 0 33 33" fill="none" xmlns="http://www.w3.org/2000/svg">
<path d="M30.25 23.265V27.39C30.2516 27.773 30.1731 28.152 30.0197 28.5029C29.8663 28.8537 29.6413 29.1687 29.3591 29.4276C29.077 29.6865 28.7438 29.8836 28.3811 30.0062C28.0183 30.1289 27.6339 30.1745 27.2525 30.14C23.0214 29.6803 18.9572 28.2345 15.3863 25.9188C12.064 23.8077 9.24737 20.991 7.13628 17.6688C4.8125 14.0817 3.36636 9.99763 2.91503 5.74751C2.88067 5.36728 2.92586 4.98406 3.04772 4.62224C3.16958 4.26043 3.36544 3.92796 3.62283 3.64599C3.88023 3.36402 4.19351 3.13874 4.54274 2.98448C4.89197 2.83022 5.2695 2.75037 5.65128 2.75001H9.77628C10.4436 2.74344 11.0905 2.97974 11.5965 3.41487C12.1024 3.84999 12.4329 4.45425 12.5263 5.11501C12.7004 6.4351 13.0233 7.73126 13.4888 8.97876C13.6738 9.47091 13.7138 10.0058 13.6042 10.52C13.4945 11.0342 13.2397 11.5062 12.87 11.88L11.1238 13.6263C13.0812 17.0686 15.9314 19.9189 19.3738 21.8763L21.12 20.13C21.4939 19.7603 21.9659 19.5056 22.4801 19.3959C22.9943 19.2862 23.5291 19.3263 24.0213 19.5113C25.2688 19.9768 26.5649 20.2997 27.885 20.4738C28.553 20.568 29.163 20.9044 29.599 21.4191C30.0351 21.9337 30.2668 22.5907 30.25 23.265Z" stroke="#1F4451" stroke-width="2.5" stroke-linecap="round" stroke-linejoin="round"/>
</svg>
