<svg width="41" height="41" viewBox="0 0 41 41" fill="none" xmlns="http://www.w3.org/2000/svg">
<rect width="41" height="41" rx="8" fill="#436D7C"/>
<path d="M20.5 7C13.0442 7 7 13.0442 7 20.5C7 23.2702 8.48142 25.8011 10.9216 27.6497C12.0863 28.5321 13.4663 29.2558 14.9986 29.7714C11.8385 27.8923 9.72093 24.4434 9.72093 20.5C9.72093 14.5469 14.5469 9.72093 20.5 9.72093C26.4531 9.72093 31.2791 14.5469 31.2791 20.5C31.2791 24.4434 29.1615 27.8923 26.0014 29.7714C27.5337 29.2558 28.9137 28.5321 30.0784 27.6497C32.5186 25.8011 34 23.2702 34 20.5C34 13.0442 27.9558 7 20.5 7Z" fill="white"/>
<path d="M30.6512 20.5C30.6512 14.8937 26.1063 10.3488 20.5 10.3488C14.8937 10.3488 10.3488 14.8937 10.3488 20.5C10.3488 22.3304 11.4397 24.0233 13.2766 25.2724C14.1829 25.8886 15.2642 26.3913 16.4682 26.7423C14.4231 25.4186 13.0698 23.1174 13.0698 20.5C13.0698 16.3964 16.3964 13.0698 20.5 13.0698C24.6036 13.0698 27.9302 16.3964 27.9302 20.5C27.9302 23.1174 26.5769 25.4186 24.5318 26.7423C25.7358 26.3913 26.8171 25.8886 27.7234 25.2724C29.5603 24.0233 30.6512 22.3304 30.6512 20.5Z" fill="white"/>
<path d="M27.3023 20.5C27.3023 16.7432 24.2568 13.6977 20.5 13.6977C16.7432 13.6977 13.6977 16.7432 13.6977 20.5C13.6977 21.3668 14.3668 22.2257 15.6149 22.8865C16.274 23.2354 17.0734 23.516 17.9685 23.7016C17.0243 22.9541 16.4186 21.7978 16.4186 20.5C16.4186 18.2459 18.2459 16.4186 20.5 16.4186C22.7541 16.4186 24.5814 18.2459 24.5814 20.5C24.5814 21.7978 23.9757 22.9541 23.0315 23.7016C23.9266 23.516 24.726 23.2354 25.3851 22.8865C26.6332 22.2257 27.3023 21.3668 27.3023 20.5Z" fill="white"/>
<path d="M20.5 24.5814C18.4941 24.5814 16.6626 24.1516 15.3211 23.4415C14.8084 23.17 14.3559 22.8506 13.9936 22.4907C14.8448 25.2763 17.4358 27.3023 20.5 27.3023C23.5642 27.3023 26.1552 25.2763 27.0064 22.4907C26.6441 22.8506 26.1916 23.17 25.6789 23.4415C24.3374 24.1516 22.5059 24.5814 20.5 24.5814Z" fill="white"/>
<path d="M12.9235 25.7916C14.8759 27.1192 17.5555 27.9302 20.5 27.9302C23.4445 27.9302 26.1241 27.1192 28.0765 25.7916C28.8563 25.2613 29.5244 24.645 30.0455 23.9619C28.6301 27.8637 24.8906 30.6512 20.5 30.6512C16.1094 30.6512 12.3699 27.8637 10.9545 23.9619C11.4756 24.645 12.1437 25.2613 12.9235 25.7916Z" fill="white"/>
<path d="M10.5425 28.1502C13.1017 30.089 16.6233 31.2791 20.5 31.2791C24.3767 31.2791 27.8983 30.089 30.4575 28.1502C31.5031 27.3581 32.3904 26.4386 33.0743 25.4229C31.1069 30.4442 26.2187 34 20.5 34C14.7813 34 9.89309 30.4442 7.92572 25.4229C8.60956 26.4386 9.49687 27.3581 10.5425 28.1502Z" fill="white"/>
</svg>
